<svg width="200" height="200" xmlns="http://www.w3.org/2000/svg">
 <defs>
  <filter height="200%" width="200%" y="-50%" x="-50%" id="svg_7_blur">
   <feGaussianBlur stdDeviation="0" in="SourceGraphic"/>
  </filter>
 </defs>
 <g>
  <title>background</title>
  <rect fill="none" id="canvas_background" height="402" width="582" y="-1" x="-1"/>
 </g>
 <g>
  <title>Layer 1</title>
  <path id="svg_4" d="m170.6,183.1c-0.7,0 -1.1,0 -1.1,0l-57.3,0l-1.1,-15.3c0,-2.3 0.1,-3.8 1.5,-4.4c0.7,-0.3 1.6,-0.2 2.9,0c1,0.2 2.3,0.4 4.1,0.4c7.6,0 13.2,-7.7 13.2,-14.6c0,-6.6 -5.9,-14.7 -13.2,-14.7c-1.8,0 -3.1,0.2 -4.1,0.4c-1.3,0.2 -2.1,0.3 -2.9,0c-1.4,-0.6 -1.5,-2 -1.5,-4.3l1.1,-15.4l19.8,0c3.4,0 4.3,-0.1 4.9,-0.6c0.2,-0.2 0.2,-0.4 -0.4,-2c-0.5,-1.3 -1.2,-3.2 -1.2,-5.6c0,-5.9 4.8,-10.8 10.8,-10.8c5.9,0 10.8,4.8 10.8,10.8c0,2.4 -0.7,4.3 -1.2,5.6c-0.6,1.6 -0.6,1.8 -0.4,2c0.6,0.5 1.5,0.6 5,0.6l19.9,0l0,58.3c0,0.4 0.3,5.2 -2.1,7.7c-1.8,1.5 -5.1,1.9 -7.5,1.9zm-56.1,-2.5l55.1,0c0.1,0 0.5,0 1,0c2.7,0 4.8,-0.5 5.7,-1.4c1.4,-1.4 1.4,-4.6 1.4,-5.8l0,-55.9l-17.4,0c-3.7,0 -5.2,-0.1 -6.6,-1.2c-1.7,-1.4 -1,-3.2 -0.4,-4.8c0.5,-1.2 1.1,-2.8 1.1,-4.7c0,-4.6 -3.7,-8.3 -8.3,-8.3c-4.5,0 -8.3,3.7 -8.3,8.3c0,2 0.6,3.4 1.1,4.7c0.6,1.6 1.3,3.4 -0.4,4.8c-1.3,1.1 -2.8,1.2 -6.6,1.2l-17.5,0l-0.9,13c0,1.2 0.1,1.7 0.1,1.9c0.3,0 0.7,-0.1 1.3,-0.2c1.1,-0.2 2.5,-0.4 4.5,-0.4c8.8,0 15.7,9.2 15.7,17.2c0,8.1 -6.7,17.1 -15.7,17.1c-2,0 -3.5,-0.2 -4.5,-0.4c-0.6,-0.1 -1.1,-0.2 -1.3,-0.2c0,0.2 -0.1,0.8 -0.1,2l1,13.1z"/>
  <path fill="#005fbf" stroke-width="5" filter="url(#svg_7_blur)" id="svg_7" d="m164.7,109.8l0,0c-2.3,0 -3.7,-0.1 -4.3,-1.5c-0.4,-0.8 -0.2,-1.7 0,-2.9c0.2,-1 0.4,-2.3 0.4,-4.1c0,-7.5 -7.7,-13.2 -14.6,-13.2c-6.6,0 -14.7,5.9 -14.7,13.2c0,1.8 0.2,3.1 0.4,4.1c0.2,1.1 0.3,2 0,2.9c-0.6,1.4 -2,1.5 -4.3,1.5l-15.4,-1.1l0,-19.8c0,-3.4 -0.1,-4.3 -0.6,-4.9c-0.1,-0.2 -0.2,-0.2 -0.3,-0.2c-0.4,0 -1,0.3 -1.7,0.5c-1.3,0.5 -3.2,1.2 -5.6,1.2c-5.9,0 -10.8,-4.8 -10.8,-10.8c0,-5.9 4.8,-10.8 10.8,-10.8c2.4,0 4.3,0.7 5.6,1.2c0.7,0.3 1.3,0.5 1.7,0.5c0.1,0 0.2,0 0.3,-0.2c0.5,-0.6 0.6,-1.5 0.6,-4.9l0,-19.7l58.3,0c0,0 0.4,0 0.9,0c1.8,0 5,0.3 6.8,2.1c2.4,2.4 2.1,7.9 2.1,8.5l0,57.3l-15.6,1.1zm-50.1,-3.4l13,0.9c1.1,0 1.7,-0.1 1.9,-0.1c0,-0.3 -0.1,-0.9 -0.2,-1.3c-0.2,-1.1 -0.4,-2.5 -0.4,-4.5c0,-8.8 9.2,-15.7 17.2,-15.7c8.1,0 17.1,6.7 17.1,15.7c0,2 -0.2,3.5 -0.4,4.5c-0.1,0.5 -0.2,1.1 -0.2,1.3c0.2,0 0.8,0.1 2,0.1l13,-0.9l0,-55.1c0.1,-2 -0.1,-5.4 -1.3,-6.6c-0.9,-0.9 -2.7,-1.4 -5,-1.4c-0.4,0 -0.7,0 -0.7,0l-55.9,0l0,17.4c0,3.7 -0.1,5.2 -1.2,6.6c-0.6,0.7 -1.3,1.1 -2.2,1.1c-0.8,0 -1.7,-0.3 -2.6,-0.7c-1.2,-0.5 -2.8,-1.1 -4.7,-1.1c-4.6,0 -8.3,3.7 -8.3,8.3c0,4.5 3.7,8.2 8.3,8.2c2,0 3.4,-0.6 4.7,-1.1c1,-0.4 1.8,-0.7 2.6,-0.7c0.9,0 1.6,0.4 2.2,1.1c1.1,1.3 1.2,2.8 1.2,6.6l0,17.4l-0.1,0z"/>
  <path fill="#00ff7f" stroke="#007f00" id="svg_10" d="m53.510324,111.934781c0,0 0,0 0,0c-1.2,0 -2.4,-0.2 -3.6,-0.6c-5.6,-2 -8.5,-8.1 -6.6,-13.7c0.8,-2.3 2.1,-3.8 3,-4.9c1.1,-1.3 1.2,-1.5 1,-1.8c-0.4,-0.7 -1.2,-1.1 -4.5,-2.2l-18.8,-6.6l19.4,-55c0.1,-0.4 1.4,-5 4.5,-6.5c0.7,-0.3 1.6,-0.5 2.6,-0.5c2.8,0 6,1.3 6.1,1.4l54.1,19.1l-4.1,14.8c-0.8,2.2 -1.3,3.5 -2.9,3.6l-0.2,0c-0.8,0 -1.6,-0.4 -2.5,-0.9c-0.9,-0.5 -2,-1.1 -3.8,-1.7c-1.2,-0.4 -2.4,-0.6 -3.7,-0.6c-5.7,0 -11.6,4.4 -13.6,10c-1.1,3.2 -1,7.1 0.4,10.7c1.4,3.7 4,6.4 7.2,7.5c1.7,0.6 3,0.8 4,1c1.1,0.2 2,0.4 2.7,1c1.1,1 0.7,2.4 0,4.5l-6.1,14.2l-18.7,-6.6c-2.1,-0.8 -3.5,-1.2 -4.2,-1.2c-0.2,0 -0.4,0 -0.6,0.1c-0.3,0.1 -0.3,0.3 -0.3,2c0,1.4 0.1,3.4 -0.7,5.7c-1.5,4.3 -5.6,7.2 -10.1,7.2zm-26.2,-31.4l16.4,5.8c3.5,1.2 4.9,1.8 5.8,3.3c1.1,1.9 -0.1,3.4 -1.3,4.7c-0.9,1 -1.9,2.3 -2.6,4.1c-1.5,4.3 0.7,9 5,10.5c0.9,0.3 1.8,0.5 2.7,0.5c3.5,0 6.6,-2.2 7.8,-5.5c0.7,-1.9 0.6,-3.4 0.6,-4.8c0,-1.7 -0.1,-3.6 1.9,-4.4c1.6,-0.6 2.9,-0.3 6.6,1l16.5,5.8l5.2,-12c0.4,-1.1 0.5,-1.6 0.5,-1.8c-0.3,-0.1 -0.8,-0.2 -1.3,-0.3c-1.1,-0.2 -2.5,-0.4 -4.4,-1.1c-3.9,-1.4 -7,-4.6 -8.7,-9c-1.6,-4.1 -1.7,-8.7 -0.4,-12.4c2.4,-6.7 9.2,-11.7 16,-11.7c1.5,0 3.1,0.3 4.5,0.8c1.9,0.7 3.2,1.4 4.1,1.9c0.4,0.2 0.9,0.5 1.2,0.6c0.1,-0.2 0.4,-0.7 0.8,-1.9l3.5,-12.5l-52,-18.3c-0.1,0 -2.9,-1.2 -5.2,-1.2c-0.6,0 -1.2,0.1 -1.5,0.3c-1.7,0.8 -2.9,3.9 -3.2,5l-18.5,52.6z"/>
  <path fill="#ff0000" id="svg_13" d="m46.8,183.1c-1.8,0 -5,-0.3 -6.8,-2.1c-2.4,-2.4 -2.1,-7.9 -2.1,-8.5l0,-57.3l15.3,-1.1c2.3,0 3.8,0.1 4.4,1.5c0.4,0.8 0.2,1.7 0,2.9c-0.2,1 -0.4,2.3 -0.4,4.1c0,7.5 7.7,13.2 14.6,13.2c6.6,0 14.7,-5.9 14.7,-13.2c0,-1.8 -0.2,-3.1 -0.4,-4.1c-0.2,-1.1 -0.3,-2 0,-2.9c0.6,-1.4 2,-1.5 4.3,-1.5l15.4,1.1l0,19.8c0,3.4 0.1,4.3 0.6,4.9c0.1,0.2 0.2,0.2 0.3,0.2c0.4,0 1,-0.3 1.7,-0.5c1.3,-0.5 3.2,-1.2 5.6,-1.2c5.9,0 10.8,4.8 10.8,10.8c0,5.9 -4.8,10.8 -10.8,10.8c-2.4,0 -4.3,-0.7 -5.6,-1.2c-0.7,-0.3 -1.3,-0.5 -1.7,-0.5c-0.1,0 -0.2,0 -0.3,0.2c-0.5,0.6 -0.6,1.5 -0.6,4.9l0,19.9l-58.3,0c0.1,-0.2 -0.2,-0.2 -0.7,-0.2zm-6.4,-65.6l0,55.1c-0.1,2 0.1,5.4 1.3,6.6c0.9,0.9 2.7,1.4 5,1.4c0.4,0 0.7,0 0.7,0l55.9,0l0,-17.4c0,-3.7 0.1,-5.2 1.2,-6.6c0.6,-0.7 1.3,-1.1 2.2,-1.1c0.8,0 1.7,0.3 2.6,0.7c1.2,0.5 2.8,1.1 4.7,1.1c4.6,0 8.3,-3.7 8.3,-8.3c0,-4.5 -3.7,-8.2 -8.3,-8.2c-2,0 -3.4,0.6 -4.7,1.1c-1,0.4 -1.8,0.7 -2.6,0.7c-0.9,0 -1.6,-0.4 -2.2,-1.1c-1.1,-1.3 -1.2,-2.8 -1.2,-6.6l0,-17.5l-13,-0.9c-1.1,0 -1.7,0.1 -1.9,0.1c0,0.3 0.1,0.9 0.2,1.3c0.2,1.1 0.4,2.5 0.4,4.5c0,8.8 -9.2,15.7 -17.2,15.7c-8.1,0 -17.1,-6.7 -17.1,-15.7c0,-2 0.2,-3.5 0.4,-4.5c0.1,-0.5 0.2,-1.1 0.2,-1.3c-0.2,0 -0.8,-0.1 -2,-0.1l-12.9,1z"/>
  <path id="svg_14" d="m133.894813,41.066116c0,0 7.053257,0.783695 7.053257,0.783695" opacity="0.5" stroke-width="null" stroke="#007f00" fill="#00ff7f"/>
 </g>
</svg>